HIERARCHY
ROOT Hips
{
	OFFSET	0.00	0.00	0.00
	CHANNELS 6 Xposition Yposition Zposition Zrotation Xrotation Yrotation
	JOINT LeftUpLeg
	{
		OFFSET	 0.126116	-0.065224	 0.014019
		CHANNELS 3 Zrotation Xrotation Yrotation
		JOINT LeftLeg
		{
			OFFSET	 0.000000	 0.569914	 0.000000
			CHANNELS 3 Zrotation Xrotation Yrotation
			JOINT LeftFoot
			{
				OFFSET	 0.000000	 0.544423	 0.000000
				CHANNELS 3 Zrotation Xrotation Yrotation
				JOINT LeftToeBase
				{
					OFFSET	 0.000000	 0.207117	 0.000000
					CHANNELS 3 Zrotation Xrotation Yrotation
					End Site
					{
						OFFSET	 0.000000	 0.207117	 0.000000
					}
				}
			}
		}
	}
	JOINT RightUpLeg
	{
		OFFSET	-0.124023	-0.065224	 0.008373
		CHANNELS 3 Zrotation Xrotation Yrotation
		JOINT RightLeg
		{
			OFFSET	 0.000000	 0.570047	 0.000000
			CHANNELS 3 Zrotation Xrotation Yrotation
			JOINT RightFoot
			{
				OFFSET	 0.000000	 0.544354	 0.000000
				CHANNELS 3 Zrotation Xrotation Yrotation
				JOINT RightToeBase
				{
					OFFSET	 0.000000	 0.207540	 0.000000
					CHANNELS 3 Zrotation Xrotation Yrotation
					End Site
					{
						OFFSET	 0.000000	 0.207540	 0.000000
					}
				}
			}
		}
	}
	JOINT Spine
	{
		OFFSET	 0.000184	 0.117403	 0.007763
		CHANNELS 3 Zrotation Xrotation Yrotation
		JOINT Spine1
		{
			OFFSET	 0.000000	 0.137269	 0.000000
			CHANNELS 3 Zrotation Xrotation Yrotation
			JOINT Spine2
			{
				OFFSET	 0.000000	 0.156879	 0.000000
				CHANNELS 3 Zrotation Xrotation Yrotation
				JOINT LeftShoulder
				{
					OFFSET	 0.080501	 0.160143	 0.002496
					CHANNELS 3 Zrotation Xrotation Yrotation
					JOINT LeftArm
					{
						OFFSET	 0.000000	 0.164363	 0.000000
						CHANNELS 3 Zrotation Xrotation Yrotation
						JOINT LeftForeArm
						{
							OFFSET	 0.000000	 0.364576	 0.000000
							CHANNELS 3 Zrotation Xrotation Yrotation
							JOINT LeftHand
							{
								OFFSET	 0.000000	 0.360812	 0.000000
								CHANNELS 3 Zrotation Xrotation Yrotation
								JOINT LeftHandIndex1
								{
									OFFSET	 0.000000	 0.086006	 0.000000
									CHANNELS 3 Zrotation Xrotation Yrotation
									JOINT LeftHandIndex2
									{
										OFFSET	 0.000000	 0.047237	 0.000000
										CHANNELS 3 Zrotation Xrotation Yrotation
										JOINT LeftHandIndex3
										{
											OFFSET	-0.004284	 0.038165	 0.000551
											CHANNELS 3 Zrotation Xrotation Yrotation
											End Site
											{
												OFFSET	-0.004284	 0.038165	 0.000551
											}
										}
									}
								}
							}
						}
					}
				}
				JOINT Neck
				{
					OFFSET	 0.000000	 0.176489	 0.000000
					CHANNELS 3 Zrotation Xrotation Yrotation
					JOINT Head
					{
						OFFSET	 0.000000	 0.077941	 0.001747
						CHANNELS 3 Zrotation Xrotation Yrotation
						End Site
						{
							OFFSET	 0.000000	 0.077941	 0.001747
						}
					}
				}
				JOINT RightShoulder
				{
					OFFSET	-0.080363	 0.159706	-0.000306
					CHANNELS 3 Zrotation Xrotation Yrotation
					JOINT RightArm
					{
						OFFSET	 0.000000	 0.164196	 0.000000
						CHANNELS 3 Zrotation Xrotation Yrotation
						JOINT RightForeArm
						{
							OFFSET	 0.000000	 0.365611	 0.000000
							CHANNELS 3 Zrotation Xrotation Yrotation
							JOINT RightHand
							{
								OFFSET	 0.000000	 0.360648	 0.000000
								CHANNELS 3 Zrotation Xrotation Yrotation
								JOINT RightHandIndex1
								{
									OFFSET	 0.000000	 0.069977	 0.000000
									CHANNELS 3 Zrotation Xrotation Yrotation
									JOINT RightHandIndex2
									{
										OFFSET	 0.000000	 0.052305	 0.000000
										CHANNELS 3 Zrotation Xrotation Yrotation
										JOINT RightHandIndex3
										{
											OFFSET	 0.009002	 0.042196	 0.000782
											CHANNELS 3 Zrotation Xrotation Yrotation
											End Site
											{
												OFFSET	 0.009002	 0.042196	 0.000782
											}
										}
									}
								}
							}
						}
					}
				}
			}
		}
	}
}
MOTION
Frames:    12
Frame Time: 0.03333334
-0.042811	 1.251999	-3.757278	-3.088369	-0.716044	-172.191300	 168.516000	-0.237361	 8.786581	 3.620484	-25.473840	 7.399686	 15.915600	 77.083730	-7.445023	 1.580641	 32.083850	-2.844257	 174.009100	 36.626640	 1.888861	-2.755038	-32.587880	 10.283510	 20.911900	 62.154960	-12.755600	-1.664081	 33.061920	 2.989637	-1.225883	 6.102469	-4.879197	 0.847445	 7.511717	-1.510986	-0.871993	-9.379349	-0.675033	-121.374500	 8.976513	 94.811630	 18.796080	 39.581230	-0.034335	 37.316050	-1.796685	 0.522874	 5.656116	-6.989889	 3.300305	 4.688744	 19.673810	-1.725902	-5.862497	 22.047700	 2.437438	 5.349172	 4.753796	-0.161577	-0.176183	-4.862264	 0.156110	-1.761403	-3.302233	-3.247495	 118.121400	-0.929423	-90.395730	 39.425510	 47.111190	-34.152130	-35.202230	-1.299309	-0.353643	 6.337332	 13.275520	-17.717530	-1.817949	 21.631630	 1.026594	 14.868360	 40.748470	-10.257830	-8.534442	 19.624910	-0.941215
-0.040230	 1.245638	-3.819106	-2.998658	-0.997887	-171.741300	 169.309500	-3.553641	 9.038172	 3.463839	-24.504870	 7.434745	 17.843230	 77.773540	-9.164967	 1.777459	 34.431050	-2.943065	 173.113500	 33.734590	 2.986068	-1.468453	-18.819500	 11.416360	 18.625900	 57.163660	-10.268330	-1.681935	 33.297350	 2.892902	-0.995501	 5.891822	-5.608267	 0.908204	 7.699941	-1.685807	-0.840065	-9.553854	-0.956383	-121.306200	 9.270887	 94.951700	 24.454900	 36.994350	-3.624387	 33.912310	-1.653708	 0.420358	 8.613237	-9.873382	 2.330517	 4.739882	 19.796690	-1.751108	-5.862191	 22.224630	 2.457049	 5.359519	 4.996926	-0.157255	-0.171547	-4.893312	 0.203801	-1.641262	-3.412683	-3.160709	 118.101100	-1.123010	-90.306600	 41.236790	 46.666260	-34.558700	-33.652170	-1.249082	-0.319195	 5.492597	 11.121420	-18.862600	-1.700328	 19.946130	 0.972767	 14.542010	 39.097930	-9.693028	-8.530614	 18.013650	-0.837511
-0.033167	 1.226064	-3.930442	-2.771910	-1.031999	-171.404800	 170.716500	-8.683226	 8.998125	 3.629837	-25.531360	 6.293618	 14.978670	 79.312770	-5.772016	 2.380658	 40.886970	-3.286983	 173.756400	 34.028810	 1.843145	-0.895943	-11.747200	 10.903740	 16.018750	 54.101490	-7.429543	-1.756434	 34.176570	 2.930852	-0.571591	 5.682549	-6.819338	 1.099474	 7.923914	-2.012037	-0.800185	-9.752930	-1.278416	-121.204400	 9.408726	 95.010240	 27.912100	 34.882780	-6.948307	 33.656040	-1.642672	 0.413009	 9.026507	-15.038360	 1.678397	 4.886303	 20.092070	-1.820530	-5.861673	 22.734400	 2.513686	 5.388914	 5.689333	-0.145182	-0.157678	-4.981746	 0.247117	-1.504380	-3.451485	-2.832837	 118.216800	-1.379447	-90.191910	 43.534610	 45.576190	-34.342890	-32.963910	-1.226510	-0.304385	 5.214196	 6.274387	-21.690240	-1.562289	 16.450490	 0.913667	 13.967640	 35.771600	-8.628942	-8.513191	 14.675550	-0.624962
-0.027855	 1.211762	-3.999043	-2.618873	-1.042273	-171.140700	 171.688000	-11.692330	 9.010800	 3.775471	-26.417360	 5.476566	 10.980140	 79.708600	-1.586631	 2.914772	 45.741420	-3.634765	 175.086000	 39.558030	 0.227031	-1.619686	-20.601120	 10.166260	 19.432000	 60.171330	-9.356152	-1.813439	 34.837650	 2.960570	-0.274084	 5.524008	-7.610133	 1.128759	 7.783888	-2.127248	-0.728851	-9.752698	-1.525230	-121.128000	 9.512456	 95.054120	 27.281920	 34.714770	-7.259517	 36.135040	-1.747821	 0.486366	 9.491182	-19.932370	 1.819942	 4.996836	 20.314060	-1.873347	-5.861644	 23.117710	 2.556410	 5.410944	 6.209978	-0.136330	-0.147203	-5.048234	 0.279706	-1.401463	-3.479689	-2.587439	 118.304100	-1.572128	-90.105300	 44.884670	 44.830040	-33.875020	-33.579570	-1.246777	-0.317643	 6.152936	 2.545585	-23.647900	-1.462429	 13.821570	 0.875578	 13.599360	 33.265010	-7.882712	-8.491908	 12.165290	-0.466393
-0.023327	 1.202915	-4.056498	-2.363978	-0.926850	-170.714700	 172.874300	-14.678040	 9.089981	 3.728272	-26.131620	 4.562715	 5.166666	 77.319820	 4.379656	 3.648525	 51.282790	-4.057208	 176.299900	 41.216870	-1.265498	-1.867492	-23.497550	 9.778126	 19.799520	 62.181410	-9.794126	-1.854998	 35.313270	 2.982599	 0.096567	 5.401661	-8.361037	 1.103023	 7.599849	-2.180068	-0.618307	-9.672703	-1.776364	-121.063500	 9.548780	 95.065450	 27.033500	 34.661790	-7.547799	 36.975390	-1.782748	 0.512233	 10.468140	-24.102410	 1.960754	 5.081801	 20.510790	-1.915908	-5.861917	 23.494120	 2.598485	 5.432025	 6.709499	-0.128018	-0.136068	-5.108190	 0.303483	-1.349526	-3.377721	-2.371989	 118.423000	-1.784786	-90.009760	 45.781230	 44.278380	-33.272270	-33.610730	-1.247669	-0.318356	 6.091077	-0.958161	-25.067680	-1.402700	 11.514170	 0.855726	 13.317580	 31.076670	-7.264070	-8.467914	 9.990486	-0.329347
-0.013036	 1.202691	-4.163292	-0.896756	 0.384417	-168.439500	 176.743500	-19.058240	 8.855918	 4.136836	-28.557320	 2.873290	-1.346652	 59.511190	 11.205830	 7.832297	 69.608250	-6.521686	-179.944600	 36.365890	-4.485069	-2.100706	-25.988840	 10.972820	 7.644363	 53.281070	-7.755910	-1.810270	 34.801170	 2.958904	 1.622337	 5.361496	-10.386680	 1.172206	 6.563734	-2.490719	-0.275883	-8.741949	-2.343842	-121.021500	 9.059012	 94.816600	 23.776000	 36.502800	-4.498977	 36.332780	-1.756040	 0.492368	 9.098607	-26.963600	 1.325591	 5.051326	 20.734640	-1.919560	-5.863441	 24.271570	 2.685789	 5.471171	 7.640069	-0.113012	-0.106070	-5.186113	 0.281661	-1.669242	-2.057568	-2.137422	 118.953800	-2.425431	-89.720990	 46.369170	 43.233490	-32.482520	-32.690770	-1.217491	-0.298519	 1.746445	-6.149883	-24.282620	-1.584938	 9.090933	 0.922569	 13.072380	 28.918160	-6.679758	-8.441208	 7.981390	-0.202659
-0.010399	 1.207670	-4.214170	-0.548992	 0.917177	-169.027700	 176.229100	-14.887930	 7.135305	 5.634851	-36.530490	 4.949197	-0.070988	 60.189590	 9.059916	 6.648783	 66.257160	-5.510549	-177.844300	 35.119030	-6.089229	-2.416337	-29.278960	 9.566665	 4.614997	 55.248380	-5.324929	-1.760384	 34.222700	 2.932894	 1.870979	 5.625989	-9.529550	 1.081369	 6.449684	-2.295854	-0.179527	-8.586508	-2.469100	-120.904600	 8.812626	 94.683490	 19.825170	 38.433320	-2.318601	 38.318210	-1.837667	 0.554664	 6.929098	-28.467850	 2.953212	 5.039795	 21.220920	-1.945517	-5.864960	 24.731150	 2.737663	 5.496572	 8.245875	-0.103570	-0.079977	-5.157305	 0.219673	-1.723863	-1.929424	-2.307315	 119.128900	-2.234422	-89.812500	 45.636680	 43.576950	-32.457260	-34.905340	-1.289943	-0.346957	 0.652936	-10.160830	-22.047000	-1.704870	 10.028380	 0.975820	 13.171960	 29.827970	-6.923132	-8.450613	 8.652316	-0.244995
-0.007502	 1.215706	-4.278286	-0.184034	 1.549365	-170.206400	 175.685600	-9.290159	 4.929195	 7.885907	-45.988540	 7.839553	 1.337951	 62.531480	 6.657811	 4.874675	 58.858410	-4.216080	-175.466900	 32.987350	-7.662154	-2.742080	-32.465530	 7.441991	 0.841118	 58.546710	-1.373441	-1.691218	 33.407850	 2.897578	 2.054419	 6.035004	-7.980126	 0.960625	 6.326027	-1.969670	-0.088981	-8.428046	-2.590514	-120.732800	 8.499392	 94.513300	 15.049170	 40.717090	 0.230395	 39.298560	-1.877177	 0.586454	 5.221257	-30.127860	 5.598882	 5.026484	 21.931860	-1.984524	-5.867650	 25.331830	 2.805777	 5.530178	 9.049600	-0.091440	-0.044026	-5.103768	 0.128188	-1.766229	-1.900728	-2.596192	 119.329000	-1.864225	-89.989370	 43.129120	 44.559330	-31.564680	-36.444140	-1.338956	-0.382207	-0.946398	-15.616110	-18.795960	-1.867256	 11.758960	 1.053394	 13.367210	 31.482400	-7.376658	-8.467119	 9.925202	-0.325234
-0.002663	 1.231048	-4.397302	 0.345229	 2.426118	-171.846900	 175.504500	 0.706339	 2.131045	 13.167200	-59.806160	 13.151730	 1.194558	 64.508000	 5.792216	 3.282232	 48.515900	-3.323450	-172.466800	 27.661600	-9.212904	-3.082680	-35.571650	 4.702554	-6.378295	 63.763460	 5.821809	-1.596751	 32.270770	 2.850781	 2.271508	 6.653030	-5.558210	 0.695041	 6.038242	-1.257833	 0.070797	-8.146324	-2.765892	-120.495000	 8.061530	 94.277690	 6.875882	 43.988670	 5.256898	 38.354210	-1.839034	 0.555809	 6.794550	-32.173890	 10.417790	 5.008673	 22.923870	-2.038989	-5.872754	 26.169940	 2.901448	 5.576915	 10.171100	-0.075265	 0.006272	-5.029168	 0.000502	-1.825461	-1.859645	-3.001029	 119.610000	-1.348717	-90.238290	 36.105900	 46.890470	-27.738710	-36.958900	-1.355071	-0.394390	-0.936422	-23.125790	-13.659250	-2.099879	 14.174250	 1.171048	 13.672210	 33.789330	-8.035288	-8.487231	 11.701640	-0.437162
-0.000209	 1.239064	-4.461588	 0.625089	 2.862137	-172.688200	 175.752400	 5.993743	 0.838195	 16.954310	-65.556640	 16.805330	 0.492996	 64.117580	 6.129104	 2.664171	 43.222790	-3.081367	-171.333000	 24.088060	-9.543558	-3.115087	-35.855320	 3.454154	-10.743250	 65.833510	 9.990141	-1.549318	 31.689270	 2.827927	 2.398873	 6.936626	-4.274922	 0.490097	 6.004007	-0.845077	 0.184941	-8.052509	-2.859260	-120.374200	 7.837225	 94.158020	 2.960308	 45.399570	 7.764813	 36.629250	-1.768282	 0.501499	 8.711502	-32.884240	 13.141120	 4.999912	 23.431170	-2.066867	-5.875983	 26.598530	 2.950671	 5.600756	 10.744600	-0.067332	 0.032056	-4.991061	-0.064814	-1.855800	-1.838174	-3.208897	 119.754500	-1.085591	-90.366510	 31.205990	 48.098760	-24.709500	-36.297290	-1.334335	-0.378818	-0.555573	-26.740620	-10.772710	-2.221805	 15.409090	 1.235640	 13.843910	 34.967750	-8.384879	-8.496194	 12.610050	-0.494437
 0.002540	 1.247941	-4.538948	 0.993652	 3.410991	-173.788500	 176.448800	 12.461190	-0.909203	 22.399830	-70.820830	 22.042330	-0.676586	 61.803150	 7.069201	 1.968668	 36.330700	-2.898663	-170.246400	 19.206430	-9.746698	-3.027997	-35.088400	 1.972022	-16.447360	 67.517620	 15.429570	-1.488421	 30.932400	 2.799229	 2.555214	 7.310117	-2.626210	 0.253084	 6.085550	-0.330751	 0.321780	-7.987659	-2.984906	-120.217800	 7.544914	 94.003030	-1.591233	 46.915720	 10.700070	 34.103390	-1.661501	 0.425853	 11.043510	-33.363490	 16.678760	 4.988861	 24.091460	-2.103189	-5.880825	 27.156390	 3.015064	 5.631735	 11.491070	-0.057347	 0.065682	-4.941503	-0.149856	-1.895344	-1.809887	-3.480270	 119.943500	-0.743569	-90.534390	 24.669010	 49.227770	-20.511280	-35.314980	-1.302924	-0.356217	 0.141734	-31.088050	-6.833697	-2.383776	 17.015540	 1.324404	 14.084550	 36.499680	-8.854150	-8.506506	 13.792250	-0.569074
 0.003641	 1.256946	-4.640456	 0.817664	 3.283358	-175.262600	 176.581700	 22.769480	-2.937006	 25.835010	-73.082400	 23.863810	-4.963895	 63.555170	 11.212580	 1.528167	 31.437690	-2.819156	-169.997000	 13.290930	-9.952019	-2.856803	-33.537300	 0.275158	-26.215320	 69.783340	 24.029590	-1.538999	 31.561850	 2.823012	 2.013792	 7.362079	-0.353273	 0.021789	 6.179265	 0.335304	 0.387438	-8.012444	-3.070295	-120.125300	 6.921002	 93.693660	-10.715390	 48.463250	 17.073460	 34.114850	-1.662284	 0.426216	 12.754490	-33.787870	 22.088590	 5.002207	 25.251210	-2.139927	-5.891762	 28.191870	 3.135609	 5.681171	 12.684570	-0.042184	 0.095134	-4.882070	-0.284230	-2.085811	-1.989547	-3.812005	 119.943700	-0.180723	-90.802990	 16.679520	 49.829520	-16.659160	-36.789280	-1.349796	-0.390286	 0.722433	-36.975560	-2.468180	-2.569518	 18.380610	 1.415498	 14.317140	 37.866910	-9.288403	-8.515649	 15.029910	-0.647403
